<svg width="503" height="160" viewBox="0 0 503 160" fill="none" xmlns="http://www.w3.org/2000/svg">
<g clip-path="url(#clip0_89_1607)">
<path d="M96.584 120V40.308H136.952C151.22 40.308 161.08 48.66 161.08 60.26C161.08 68.38 157.02 74.296 149.944 78.008C159.224 82.184 164.56 89.608 164.56 98.424C164.56 111.184 153.656 120 138.46 120H96.584ZM113.636 72.44H132.66C139.04 72.44 143.564 68.728 143.564 63.624C143.564 58.636 139.04 54.924 132.66 54.924H113.636V72.44ZM113.636 105.384H135.328C142.172 105.384 147.044 101.324 147.044 95.64C147.044 89.956 142.172 85.896 135.328 85.896H113.636V105.384ZM169.229 120V40.308H186.397V120H169.229ZM214.95 120V55.736H190.126V40.308H256.942V55.736H232.118V120H214.95ZM296.928 88.564V75.224H332.192V108.052C324.188 116.404 311.892 121.392 299.944 121.392C276.86 121.392 257.256 102.484 257.256 80.096C257.256 57.708 276.86 38.916 299.944 38.916C311.892 38.916 324.188 43.904 332.192 52.256L319.78 63.392C315.024 57.94 307.252 54.46 299.944 54.46C286.372 54.46 274.888 66.292 274.888 80.096C274.888 94.016 286.372 105.848 299.944 105.848C305.396 105.848 310.964 103.992 315.488 100.744V88.564H296.928ZM397.059 120L391.955 107.472H356.459L351.355 120H332.215L364.695 40.308H383.835L416.315 120H397.059ZM362.375 92.972H386.039L374.207 63.856L362.375 92.972ZM418.404 120V40.308H435.456L460.164 85.316L484.756 40.308H501.924V120H484.756V70.352L460.164 115.36L435.456 70.352V120H418.404Z" fill="#47484D"/>
<g clip-path="url(#clip1_89_1607)">
<path d="M14.7916 112.877H0V120H14.7916V112.877Z" fill="#FFB800"/>
<path d="M26.8998 112.877H20.7847V120H26.8998V112.877Z" fill="#FFB800"/>
<path d="M37.4792 104.42H0V95.5397H37.2921C39.6341 95.5397 41.7158 97.2718 41.911 99.6056C42.0167 100.98 41.5125 102.232 40.618 103.11C39.813 103.915 38.7152 104.411 37.4792 104.411V104.42Z" fill="#FFB800"/>
<path d="M37.4792 87.0827H0V78.1948H37.2921C39.6341 78.1948 41.7158 79.9268 41.911 82.2606C42.0167 83.6349 41.5125 84.8872 40.618 85.7735C39.813 86.5786 38.7152 87.0746 37.4792 87.0746V87.0827Z" fill="#FFB800"/>
<path d="M80 40V92.5391C80 107.705 67.7048 120 52.531 120H32.8929V112.877H38.3411C41.8947 112.877 45.123 111.437 47.4649 109.095C49.7906 106.753 51.2462 103.541 51.2462 99.9878C51.2462 96.6375 49.9776 93.5881 47.8959 91.3031C49.9695 89.0018 51.2462 85.9687 51.2462 82.6347C51.2462 75.495 45.4727 69.7296 38.3493 69.7296H32.901V62.6225H26.9079V69.7296H20.7928V62.6225H14.7998V69.7296H0V67.469C0 52.2952 12.2952 40 27.469 40H80Z" fill="#FFB800"/>
</g>
</g>
<defs>
<clipPath id="clip0_89_1607">
<rect width="503" height="160" fill="white"/>
</clipPath>
<clipPath id="clip1_89_1607">
<rect width="80" height="80" fill="white" transform="translate(0 40)"/>
</clipPath>
</defs>
</svg>
