<svg width="499" height="160" viewBox="0 0 499 160" fill="none" xmlns="http://www.w3.org/2000/svg">
<path d="M96.584 120V40.308H136.952C151.22 40.308 161.08 48.66 161.08 60.26C161.08 68.38 157.02 74.296 149.944 78.008C159.224 82.184 164.56 89.608 164.56 98.424C164.56 111.184 153.656 120 138.46 120H96.584ZM113.636 72.44H132.66C139.04 72.44 143.564 68.728 143.564 63.624C143.564 58.636 139.04 54.924 132.66 54.924H113.636V72.44ZM113.636 105.384H135.328C142.172 105.384 147.044 101.324 147.044 95.64C147.044 89.956 142.172 85.896 135.328 85.896H113.636V105.384ZM167.229 120V40.308H184.397V120H167.229ZM211.95 120V55.736H187.126V40.308H253.942V55.736H229.118V120H211.95ZM273.976 104.572H313.648V120H256.808V40.308H273.976V104.572ZM316.909 120V40.308H334.077V120H316.909ZM337.982 120V40.308H373.826C391.11 40.308 403.87 51.444 403.87 67.22C403.87 82.996 391.11 94.132 373.826 94.132H355.034V120H337.982ZM355.034 78.472H371.97C380.438 78.472 386.238 74.064 386.238 67.22C386.238 60.376 380.438 55.968 371.97 55.968H355.034V78.472ZM459.92 40.308H476.972V120H459.92V87.056H423.612V120H406.56V40.308H423.612V71.628H459.92V40.308ZM480.999 120V40.308H498.167V120H480.999Z" fill="#47484D"/>
<g clip-path="url(#clip0_89_1607)">
<path d="M14.7916 112.877H0V120H14.7916V112.877Z" fill="#EFA413"/>
<path d="M26.8998 112.877H20.7847V120H26.8998V112.877Z" fill="#EFA413"/>
<path d="M37.4792 104.42H0V95.5397H37.2921C39.6341 95.5397 41.7158 97.2718 41.911 99.6056C42.0167 100.98 41.5125 102.232 40.618 103.11C39.813 103.915 38.7152 104.411 37.4792 104.411V104.42Z" fill="#EFA413"/>
<path d="M37.4792 87.0827H0V78.1948H37.2921C39.6341 78.1948 41.7158 79.9268 41.911 82.2606C42.0167 83.6349 41.5125 84.8872 40.618 85.7735C39.813 86.5786 38.7152 87.0746 37.4792 87.0746V87.0827Z" fill="#EFA413"/>
<path d="M80 40V92.5391C80 107.705 67.7048 120 52.531 120H32.8929V112.877H38.3411C41.8947 112.877 45.123 111.437 47.4649 109.095C49.7906 106.753 51.2462 103.541 51.2462 99.9878C51.2462 96.6375 49.9776 93.5881 47.8959 91.3031C49.9695 89.0018 51.2462 85.9687 51.2462 82.6347C51.2462 75.495 45.4727 69.7296 38.3493 69.7296H32.901V62.6225H26.9079V69.7296H20.7928V62.6225H14.7998V69.7296H0V67.469C0 52.2952 12.2952 40 27.469 40H80Z" fill="#EFA413"/>
</g>
<defs>
<clipPath id="clip0_89_1607">
<rect width="80" height="80" fill="white" transform="translate(0 40)"/>
</clipPath>
</defs>
</svg>
