<svg width="280" height="160" viewBox="0 0 280 160" fill="none" xmlns="http://www.w3.org/2000/svg">
<g clip-path="url(#clip0_75_340)">
<path d="M102.397 119.934H112.237V122.194H105.097V125.754H110.437V127.934H105.097V133.934H102.397V119.934ZM123.133 119.934H125.833V133.934H123.133V119.934ZM149.043 119.934V133.934H146.303L140.163 124.214V133.934H137.463V119.934H140.203L146.343 129.654V119.934H149.043ZM167.06 122.194H166.34L162.22 133.934H159.44L164.46 119.934H168.92L173.94 133.934H171.16L167.06 122.194ZM162.48 128.454H170.64V130.714H162.48V128.454ZM195.906 119.934V133.934H193.166L187.026 124.214V133.934H184.326V119.934H187.066L193.206 129.654V119.934H195.906ZM206.862 126.934C206.862 125.881 207.036 124.921 207.382 124.054C207.742 123.174 208.242 122.421 208.882 121.794C209.522 121.154 210.269 120.661 211.122 120.314C211.989 119.968 212.922 119.794 213.922 119.794C215.362 119.794 216.636 120.141 217.742 120.834C218.862 121.514 219.702 122.494 220.262 123.774L218.002 124.434C217.709 123.874 217.342 123.421 216.902 123.074C216.476 122.728 216.009 122.474 215.502 122.314C214.996 122.154 214.482 122.074 213.962 122.074C213.109 122.074 212.349 122.281 211.682 122.694C211.016 123.094 210.496 123.661 210.122 124.394C209.762 125.128 209.582 125.974 209.582 126.934C209.582 127.894 209.762 128.741 210.122 129.474C210.496 130.194 211.016 130.761 211.682 131.174C212.349 131.588 213.109 131.794 213.962 131.794C214.496 131.794 215.022 131.714 215.542 131.554C216.076 131.381 216.569 131.094 217.022 130.694C217.476 130.294 217.862 129.761 218.182 129.094L220.402 129.714C219.829 131.168 218.976 132.261 217.842 132.994C216.709 133.714 215.402 134.074 213.922 134.074C212.922 134.074 211.989 133.901 211.122 133.554C210.269 133.208 209.522 132.714 208.882 132.074C208.242 131.434 207.742 130.681 207.382 129.814C207.036 128.934 206.862 127.974 206.862 126.934ZM231.559 119.934H234.259V133.934H231.559V119.934ZM252.289 122.194H251.569L247.449 133.934H244.669L249.689 119.934H254.149L259.169 133.934H256.389L252.289 122.194ZM247.709 128.454H255.869V130.714H247.709V128.454ZM272.254 119.934V131.674H278.474V133.934H269.554V119.934H272.254Z" fill="#014788"/>
<path d="M139.317 66.0626C139.317 63.2113 138.377 60.997 136.496 59.4196C134.676 57.8423 132.098 57.0536 128.761 57.0536H112.472V74.9806H128.761C132.098 74.9806 134.676 74.2223 136.496 72.7056C138.377 71.1283 139.317 68.914 139.317 66.0626ZM101.643 111.745V48.0446H129.853C134.342 48.0446 138.073 48.803 141.046 50.3196C144.079 51.8363 146.354 53.8686 147.871 56.4166C149.448 58.904 150.237 61.6643 150.237 64.6976C150.237 67.4883 149.721 69.8543 148.69 71.7956C147.659 73.737 146.263 75.284 144.504 76.4366C142.745 77.5893 140.773 78.4083 138.589 78.8936V79.6216C141.198 79.9856 143.503 80.744 145.505 81.8966C147.507 83.0493 149.054 84.6873 150.146 86.8106C151.238 88.934 151.784 91.573 151.784 94.7276C151.784 97.943 150.935 100.855 149.236 103.464C147.598 106.012 145.232 108.044 142.138 109.561C139.044 111.017 135.343 111.745 131.036 111.745H101.643ZM112.472 102.736H129.944C133.402 102.736 136.102 101.947 138.043 100.37C139.984 98.7923 140.955 96.5173 140.955 93.5446C140.955 90.39 139.893 87.9936 137.77 86.3556C135.707 84.7176 132.977 83.8986 129.58 83.8986H112.472V102.736ZM181.701 48.0446V102.736H210.275V111.745H170.872V48.0446H181.701ZM226.943 48.0446H237.681V88.6306C237.681 91.846 238.318 94.5456 239.592 96.7296C240.927 98.9136 242.717 100.552 244.961 101.644C247.206 102.675 249.754 103.191 252.605 103.191C255.578 103.191 258.187 102.675 260.431 101.644C262.676 100.552 264.435 98.9136 265.709 96.7296C267.044 94.5456 267.711 91.846 267.711 88.6306V48.0446H278.449V88.3576C278.449 92.4223 277.721 95.9713 276.265 99.0046C274.87 101.977 272.929 104.465 270.441 106.467C268.015 108.469 265.254 109.955 262.16 110.926C259.127 111.896 255.912 112.382 252.514 112.382C248.025 112.382 243.839 111.502 239.956 109.743C236.074 107.983 232.919 105.344 230.492 101.826C228.126 98.2463 226.943 93.757 226.943 88.3576V48.0446Z" fill="#0974D8"/>
<g clip-path="url(#clip1_75_340)">
<path d="M44.5749 82.517V22.1988C44.5691 21.0341 43.0378 20.5568 42.345 21.5L35.5272 30.7386C34.0833 32.6932 33.3031 35.0568 33.3031 37.4659V90.4318C36.0279 88.6932 38.875 86.75 41.7919 84.6022C42.7293 83.9091 43.655 83.2102 44.5691 82.5113L44.5749 82.517Z" fill="#16BFE4"/>
<path d="M84.9404 50.9659C82.0875 47.2784 71.1534 46.9886 60.1377 54.0057V39.5454C60.1377 37.1932 59.0897 34.9375 57.2732 33.3864L51.7363 28.6648C50.6184 27.7102 48.8717 28.4886 48.8717 29.9375V79.0852C53.1743 75.5114 57.0228 71.9091 60.0504 68.5682C60.0795 68.5341 60.1086 68.5057 60.1377 68.4716V58.3636C65.8086 55.2045 69.5464 55.9886 70.6294 57.3864C73.8432 61.5398 62.2163 75.392 44.6681 88.3182C27.1141 101.244 10.2762 108.358 7.06818 104.205C5.25747 101.858 10.3112 93.2216 17.752 86.1136V98.7557C20.9251 97.4659 24.7619 95.5625 29.0238 93.0682V43.2898C29.0238 42.125 27.4983 41.6477 26.7997 42.5909L19.976 51.8409C18.5321 53.7954 17.752 56.1591 17.752 58.5682V81.8864C5.52529 94 -2.63164 108.534 0.78018 112.949C3.1964 116.074 9.43782 115.955 17.7403 113.233V117.182C17.7403 119.534 18.7883 121.79 20.6048 123.341L26.1418 128.062C27.2596 129.017 29.0063 128.239 29.0063 126.79V108.551C30.4095 107.864 31.8417 107.125 33.2973 106.335V132.801C33.2973 133.966 34.8227 134.443 35.5214 133.5L42.345 124.25C43.7889 122.295 44.5691 119.932 44.5691 117.523V99.5852C45.9955 98.6477 47.4278 97.6761 48.8601 96.6704V112.398C48.8601 113.557 50.3855 114.04 51.0842 113.097L57.9078 103.847C59.3517 101.892 60.1319 99.5284 60.1319 97.1193V88.0909C78.7106 72.7045 89.5458 56.9318 84.9346 50.9659H84.9404Z" fill="#16BFE4"/>
</g>
</g>
<defs>
<clipPath id="clip0_75_340">
<rect width="280" height="160" fill="white"/>
</clipPath>
<clipPath id="clip1_75_340">
<rect width="86" height="113" fill="white" transform="translate(0 21)"/>
</clipPath>
</defs>
</svg>
