<svg width="483" height="160" viewBox="0 0 483 160" fill="none" xmlns="http://www.w3.org/2000/svg">
<g clip-path="url(#clip0_94_2118)">
<path d="M157.8 120V40.56H180.48C185.84 40.56 191.24 41.32 196.68 42.84C202.12 44.28 207.12 46.68 211.68 50.04C216.24 53.32 219.88 57.64 222.6 63C225.4 68.28 226.8 74.76 226.8 82.44C226.8 89.08 225.6 94.8 223.2 99.6C220.8 104.32 217.52 108.2 213.36 111.24C209.28 114.2 204.6 116.4 199.32 117.84C194.04 119.28 188.52 120 182.76 120H157.8ZM180.36 115.92C186.84 115.92 192.6 114.64 197.64 112.08C202.76 109.52 206.76 105.64 209.64 100.44C212.6 95.16 214.08 88.52 214.08 80.52C214.08 74.36 212.92 68.84 210.6 63.96C208.36 59.08 205.24 55 201.24 51.72C197.32 48.44 192.84 46.16 187.8 44.88C185 44.88 181.8 45.12 178.2 45.6C174.68 46.08 171.8 46.68 169.56 47.4V114.84C170.68 115.16 172.28 115.44 174.36 115.68C176.44 115.84 178.44 115.92 180.36 115.92ZM242.761 120V40.56H290.881L289.681 48.6L267.361 44.88C265.041 44.88 262.881 45.08 260.881 45.48C258.881 45.8 256.721 46.28 254.401 46.92V76.08H281.041V80.64H254.401V115.68L291.601 111.96L290.401 120H242.761ZM310.144 120V40.56H321.904V113.52C323.984 114.08 326.064 114.6 328.144 115.08C330.304 115.48 332.144 115.68 333.664 115.68L355.384 111.96L353.944 120H310.144ZM376.952 120V46.32C375.672 46 374.392 45.76 373.112 45.6C371.832 45.44 370.392 45.36 368.792 45.36L352.592 49.08L351.872 40.56H413.672L413.072 49.08L396.752 45.36C395.152 45.36 393.712 45.44 392.432 45.6C391.152 45.76 389.872 46 388.592 46.32V120H376.952ZM408.942 120L444.582 38.64H446.382L482.022 120H468.942L459.942 98.4H424.302L415.422 120H408.942ZM426.102 93.84H458.022L442.182 54.96L426.102 93.84Z" fill="#203D57"/>
<g clip-path="url(#clip1_94_2118)">
<path d="M70.5451 92.6345H23.4873L23.5289 92.6828L47.0162 119L70.5035 92.6828L70.5451 92.6345Z" fill="#203D57"/>
<path d="M117.513 92.6345H70.4619L70.5035 92.6828L93.9908 119L117.471 92.6828L117.513 92.6345Z" fill="#203D57"/>
<path d="M47.0578 66.3173H0L23.4873 92.6345L23.5289 92.6828L23.5705 92.6345L47.0162 66.3655L47.0578 66.3173Z" fill="#203D57"/>
<path d="M94.0254 66.3173H46.9746L47.0162 66.3655L70.4618 92.6345L70.5035 92.6828L70.5451 92.6345L93.9907 66.3655L94.0254 66.3173Z" fill="#203D57"/>
<path d="M141 66.3173H93.9422L93.9907 66.3655L117.436 92.6345L117.471 92.6828L117.513 92.6345L141 66.3173Z" fill="#203D57"/>
<path d="M70.5451 40H23.4873L46.9746 66.3172L47.0162 66.3655L47.0509 66.3172H47.0578L70.5035 40.0483L70.5451 40Z" fill="#203D57"/>
<path d="M117.513 40H70.4619L70.5035 40.0483L93.9422 66.3172H93.9491L93.9908 66.3655L94.0254 66.3172L117.513 40Z" fill="#203D57"/>
<path d="M70.4619 92.6345L47.0162 66.3655L23.5705 92.6345H70.4619Z" fill="#6CAEC4"/>
<path d="M117.436 92.6345L93.9908 66.3655L70.5451 92.6345H117.436Z" fill="#6CAEC4"/>
<path d="M93.9422 66.3173L70.5035 40.0483L47.0578 66.3173H93.9422Z" fill="#6CAEC4"/>
<path d="M94.0254 66.3173H46.9746L47.0162 66.3655L70.4618 92.6345L70.5035 92.6828L70.5451 92.6345L93.9907 66.3655L94.0254 66.3173Z" fill="#203D57"/>
</g>
</g>
<defs>
<clipPath id="clip0_94_2118">
<rect width="483" height="160" fill="white"/>
</clipPath>
<clipPath id="clip1_94_2118">
<rect width="141" height="79" fill="white" transform="translate(0 40)"/>
</clipPath>
</defs>
</svg>
