<svg width="507" height="160" viewBox="0 0 507 160" fill="none" xmlns="http://www.w3.org/2000/svg">
<path d="M132.428 88.564V75.224H167.692V108.052C159.688 116.404 147.392 121.392 135.444 121.392C112.36 121.392 92.756 102.484 92.756 80.096C92.756 57.708 112.36 38.916 135.444 38.916C147.392 38.916 159.688 43.904 167.692 52.256L155.28 63.392C150.524 57.94 142.752 54.46 135.444 54.46C121.872 54.46 110.388 66.292 110.388 80.096C110.388 94.016 121.872 105.848 135.444 105.848C140.896 105.848 146.464 103.992 150.988 100.744V88.564H132.428ZM232.559 120L227.455 107.472H191.959L186.855 120H167.715L200.195 40.308H219.335L251.815 120H232.559ZM197.875 92.972H221.539L209.707 63.856L197.875 92.972ZM253.904 120V40.308H270.956L295.664 85.316L320.256 40.308H337.424V120H320.256V70.352L295.664 115.36L270.956 70.352V120H253.904ZM346.498 120V40.308H386.866C401.134 40.308 410.994 48.66 410.994 60.26C410.994 68.38 406.934 74.296 399.858 78.008C409.138 82.184 414.474 89.608 414.474 98.424C414.474 111.184 403.57 120 388.374 120H346.498ZM363.55 72.44H382.574C388.954 72.44 393.478 68.728 393.478 63.624C393.478 58.636 388.954 54.924 382.574 54.924H363.55V72.44ZM363.55 105.384H385.242C392.086 105.384 396.958 101.324 396.958 95.64C396.958 89.956 392.086 85.896 385.242 85.896H363.55V105.384ZM419.143 120V40.308H436.311V120H419.143ZM464.864 120V55.736H440.04V40.308H506.856V55.736H482.032V120H464.864Z" fill="#47484D"/>
<g clip-path="url(#clip0_89_1607)">
<path d="M14.7916 112.877H0V120H14.7916V112.877Z" fill="#FFB800"/>
<path d="M26.8998 112.877H20.7847V120H26.8998V112.877Z" fill="#FFB800"/>
<path d="M37.4792 104.42H0V95.5397H37.2921C39.6341 95.5397 41.7158 97.2718 41.911 99.6056C42.0167 100.98 41.5125 102.232 40.618 103.11C39.813 103.915 38.7152 104.411 37.4792 104.411V104.42Z" fill="#FFB800"/>
<path d="M37.4792 87.0827H0V78.1948H37.2921C39.6341 78.1948 41.7158 79.9268 41.911 82.2606C42.0167 83.6349 41.5125 84.8872 40.618 85.7735C39.813 86.5786 38.7152 87.0746 37.4792 87.0746V87.0827Z" fill="#FFB800"/>
<path d="M80 40V92.5391C80 107.705 67.7048 120 52.531 120H32.8929V112.877H38.3411C41.8947 112.877 45.123 111.437 47.4649 109.095C49.7906 106.753 51.2462 103.541 51.2462 99.9878C51.2462 96.6375 49.9776 93.5881 47.8959 91.3031C49.9695 89.0018 51.2462 85.9687 51.2462 82.6347C51.2462 75.495 45.4727 69.7296 38.3493 69.7296H32.901V62.6225H26.9079V69.7296H20.7928V62.6225H14.7998V69.7296H0V67.469C0 52.2952 12.2952 40 27.469 40H80Z" fill="#FFB800"/>
</g>
<defs>
<clipPath id="clip0_89_1607">
<rect width="80" height="80" fill="white" transform="translate(0 40)"/>
</clipPath>
</defs>
</svg>
