<svg width="516" height="160" viewBox="0 0 516 160" fill="none" xmlns="http://www.w3.org/2000/svg">
<g clip-path="url(#clip0_89_1607)">
<path d="M140.428 88.564V75.224H175.692V108.052C167.688 116.404 155.392 121.392 143.444 121.392C120.36 121.392 100.756 102.484 100.756 80.096C100.756 57.708 120.36 38.916 143.444 38.916C155.392 38.916 167.688 43.904 175.692 52.256L163.28 63.392C158.524 57.94 150.752 54.46 143.444 54.46C129.872 54.46 118.388 66.292 118.388 80.096C118.388 94.016 129.872 105.848 143.444 105.848C148.896 105.848 154.464 103.992 158.988 100.744V88.564H140.428ZM240.559 120L235.455 107.472H199.959L194.855 120H175.715L208.195 40.308H227.335L259.815 120H240.559ZM205.875 92.972H229.539L217.707 63.856L205.875 92.972ZM261.904 120V40.308H278.956L303.664 85.316L328.256 40.308H345.424V120H328.256V70.352L303.664 115.36L278.956 70.352V120H261.904ZM354.498 120V40.308H394.866C409.134 40.308 418.994 48.66 418.994 60.26C418.994 68.38 414.934 74.296 407.858 78.008C417.138 82.184 422.474 89.608 422.474 98.424C422.474 111.184 411.57 120 396.374 120H354.498ZM371.55 72.44H390.574C396.954 72.44 401.478 68.728 401.478 63.624C401.478 58.636 396.954 54.924 390.574 54.924H371.55V72.44ZM371.55 105.384H393.242C400.086 105.384 404.958 101.324 404.958 95.64C404.958 89.956 400.086 85.896 393.242 85.896H371.55V105.384ZM427.143 120V40.308H444.311V120H427.143ZM472.864 120V55.736H448.04V40.308H514.856V55.736H490.032V120H472.864Z" fill="#47484D"/>
<g clip-path="url(#clip1_89_1607)">
<path d="M14.7916 112.877H0V120H14.7916V112.877Z" fill="#FFB800"/>
<path d="M26.8998 112.877H20.7847V120H26.8998V112.877Z" fill="#FFB800"/>
<path d="M37.4792 104.42H0V95.5397H37.2921C39.6341 95.5397 41.7158 97.2718 41.911 99.6056C42.0167 100.98 41.5125 102.232 40.618 103.11C39.813 103.915 38.7152 104.411 37.4792 104.411V104.42Z" fill="#FFB800"/>
<path d="M37.4792 87.0827H0V78.1948H37.2921C39.6341 78.1948 41.7158 79.9268 41.911 82.2606C42.0167 83.6349 41.5125 84.8872 40.618 85.7735C39.813 86.5786 38.7152 87.0746 37.4792 87.0746V87.0827Z" fill="#FFB800"/>
<path d="M80 40V92.5391C80 107.705 67.7048 120 52.531 120H32.8929V112.877H38.3411C41.8947 112.877 45.123 111.437 47.4649 109.095C49.7906 106.753 51.2462 103.541 51.2462 99.9878C51.2462 96.6375 49.9776 93.5881 47.8959 91.3031C49.9695 89.0018 51.2462 85.9687 51.2462 82.6347C51.2462 75.495 45.4727 69.7296 38.3493 69.7296H32.901V62.6225H26.9079V69.7296H20.7928V62.6225H14.7998V69.7296H0V67.469C0 52.2952 12.2952 40 27.469 40H80Z" fill="#FFB800"/>
</g>
</g>
<defs>
<clipPath id="clip0_89_1607">
<rect width="516" height="160" fill="white"/>
</clipPath>
<clipPath id="clip1_89_1607">
<rect width="80" height="80" fill="white" transform="translate(0 40)"/>
</clipPath>
</defs>
</svg>
