<svg width="642" height="160" viewBox="0 0 642 160" fill="none" xmlns="http://www.w3.org/2000/svg">
<path d="M175.398 40.629C176.197 40.4837 177.142 40.3747 178.232 40.302C179.395 40.2293 180.485 40.193 181.502 40.193C182.447 40.193 183.464 40.2293 184.554 40.302C185.717 40.3747 186.77 40.4837 187.715 40.629L207.553 107.664L227.282 40.629C229.244 40.411 231.242 40.302 233.277 40.302C234.222 40.302 235.203 40.3383 236.22 40.411C237.31 40.411 238.291 40.4837 239.163 40.629L213.657 119C212.712 119.145 211.659 119.254 210.496 119.327C209.333 119.4 208.243 119.436 207.226 119.436C206.209 119.436 205.119 119.4 203.956 119.327C202.866 119.254 201.812 119.145 200.795 119L175.398 40.629ZM284.939 100.906H255.182L249.841 119C248.896 119.145 247.951 119.254 247.007 119.327C246.062 119.4 245.117 119.436 244.173 119.436C243.155 119.436 242.138 119.4 241.121 119.327C240.176 119.254 239.304 119.145 238.505 119L264.011 40.629C264.955 40.4837 265.973 40.3747 267.063 40.302C268.153 40.2293 269.279 40.193 270.442 40.193C271.459 40.193 272.513 40.2293 273.603 40.302C274.693 40.3747 275.746 40.4837 276.764 40.629L302.161 119C301.289 119.145 300.308 119.254 299.218 119.327C298.128 119.4 297.074 119.436 296.057 119.436C295.112 119.436 294.131 119.4 293.114 119.327C292.169 119.254 291.261 119.145 290.389 119L284.939 100.906ZM258.125 91.205H281.996L270.006 51.202L258.125 91.205ZM313.626 40.629C314.426 40.4837 315.261 40.3747 316.133 40.302C317.078 40.2293 318.059 40.193 319.076 40.193C320.021 40.193 320.966 40.2293 321.91 40.302C322.855 40.3747 323.763 40.4837 324.635 40.629V109.19H355.373C355.519 109.989 355.591 110.825 355.591 111.697C355.664 112.569 355.7 113.368 355.7 114.095C355.7 115.839 355.591 117.474 355.373 119H313.626V40.629ZM447.22 40.52C448.819 40.3747 450.272 40.2293 451.58 40.084C452.888 39.9387 454.16 39.8297 455.395 39.757C456.703 39.6117 458.047 39.5027 459.428 39.43C460.809 39.3573 462.335 39.321 464.006 39.321C467.712 39.321 471.382 39.6843 475.015 40.411C478.648 41.1377 481.882 42.4093 484.716 44.226C487.55 46.0427 489.839 48.5133 491.583 51.638C493.4 54.69 494.308 58.5777 494.308 63.301C494.308 66.135 493.836 68.7147 492.891 71.04C491.946 73.3653 490.747 75.4363 489.294 77.253C487.841 79.0697 486.169 80.6683 484.28 82.049C482.463 83.357 480.683 84.447 478.939 85.319L477.631 85.973L500.412 119C498.45 119.218 496.234 119.327 493.763 119.327C491.801 119.327 489.839 119.218 487.877 119L462.807 82.703V82.267L463.679 82.049C465.641 81.5403 467.712 80.85 469.892 79.978C472.072 79.106 474.07 77.9797 475.887 76.599C477.776 75.1457 479.339 73.438 480.574 71.476C481.809 69.4413 482.427 67.007 482.427 64.173C482.427 58.941 480.865 55.0533 477.74 52.51C474.688 49.9667 470.546 48.695 465.314 48.695C464.079 48.695 462.916 48.7313 461.826 48.804C460.809 48.8767 459.646 48.9857 458.338 49.131V119C457.539 119.073 456.63 119.145 455.613 119.218C454.668 119.291 453.76 119.327 452.888 119.327C452.016 119.327 451.071 119.291 450.054 119.218C449.037 119.218 448.092 119.145 447.22 119V40.52ZM512.04 40.629H555.095C555.313 42.0823 555.422 43.681 555.422 45.425C555.422 46.2243 555.386 47.06 555.313 47.932C555.313 48.804 555.241 49.6033 555.095 50.33H523.158V72.784H548.664C548.81 73.5107 548.919 74.31 548.991 75.182C549.064 75.9813 549.1 76.7807 549.1 77.58C549.1 78.3793 549.064 79.215 548.991 80.087C548.919 80.959 548.81 81.7583 548.664 82.485H523.158V109.299H555.967C556.185 110.752 556.294 112.351 556.294 114.095C556.294 114.894 556.258 115.73 556.185 116.602C556.185 117.474 556.113 118.273 555.967 119H512.04V40.629ZM572.659 40.629C573.531 40.4837 574.512 40.3747 575.602 40.302C576.764 40.2293 577.854 40.193 578.872 40.193C579.889 40.193 580.979 40.2293 582.142 40.302C583.377 40.3747 584.394 40.4837 585.194 40.629L605.468 89.679L625.851 40.629C626.577 40.4837 627.486 40.3747 628.576 40.302C629.666 40.2293 630.719 40.193 631.737 40.193C632.681 40.193 633.735 40.2293 634.898 40.302C636.06 40.3747 637.041 40.4837 637.841 40.629L641.547 119C640.675 119.145 639.766 119.254 638.822 119.327C637.95 119.4 637.041 119.436 636.097 119.436C635.152 119.436 634.207 119.4 633.263 119.327C632.391 119.254 631.555 119.145 630.756 119L628.249 58.069L609.065 102.759C607.611 102.977 606.122 103.086 604.596 103.086C603.215 103.086 601.834 102.977 600.454 102.759L581.924 57.742L579.417 119C578.617 119.145 577.782 119.254 576.91 119.327C576.038 119.4 575.202 119.436 574.403 119.436C573.458 119.436 572.55 119.4 571.678 119.327C570.806 119.254 569.97 119.145 569.171 119L572.659 40.629Z" fill="#1D2A38"/>
<path d="M397.787 120.308C392.119 120.308 387.214 119.327 383.072 117.365C378.93 115.33 375.478 112.533 372.717 108.972C370.028 105.339 367.994 101.051 366.613 96.11C365.305 91.1687 364.651 85.755 364.651 79.869C364.651 73.983 365.305 68.5693 366.613 63.628C367.994 58.6867 370.028 54.4357 372.717 50.875C375.478 47.2417 378.93 44.4077 383.072 42.373C387.214 40.3383 392.119 39.321 397.787 39.321C403.455 39.321 408.36 40.3383 412.502 42.373C416.644 44.4077 420.059 47.2417 422.748 50.875C425.509 54.4357 427.544 58.6867 428.852 63.628C430.16 68.5693 430.814 73.983 430.814 79.869C430.814 85.755 430.16 91.1687 428.852 96.11C427.544 101.051 425.509 105.339 422.748 108.972C420.059 112.533 416.644 115.33 412.502 117.365C408.36 119.327 403.455 120.308 397.787 120.308ZM397.787 110.716C401.42 110.716 404.545 110.026 407.161 108.645C409.85 107.192 412.066 105.121 413.81 102.432C415.554 99.7433 416.862 96.5097 417.734 92.731C418.606 88.9523 419.042 84.665 419.042 79.869C419.042 75.1457 418.606 70.8947 417.734 67.116C416.862 63.2647 415.554 60.031 413.81 57.415C412.066 54.7263 409.85 52.6917 407.161 51.311C404.545 49.8577 401.42 49.131 397.787 49.131C394.154 49.131 390.993 49.8577 388.304 51.311C385.688 52.6917 383.508 54.7263 381.764 57.415C380.02 60.031 378.712 63.2647 377.84 67.116C376.968 70.8947 376.532 75.1457 376.532 79.869C376.532 84.665 376.968 88.9523 377.84 92.731C378.712 96.5097 380.02 99.7433 381.764 102.432C383.508 105.121 385.688 107.192 388.304 108.645C390.993 110.026 394.154 110.716 397.787 110.716Z" fill="#FF6600"/>
<g clip-path="url(#clip0_89_1698)">
<path d="M49.4598 120L49.4523 119.977L44.9278 112.142L9.04891 50H0L40.4034 119.985L40.3958 120H40.4109H49.4372H49.4598Z" fill="#1D2A38"/>
<path d="M85.6479 120L85.6403 119.977L81.1159 112.142L76.5914 104.306L72.067 96.4706L67.5501 88.635L63.0181 80.7994L45.237 50H36.1956L58.4936 88.635L63.0181 96.4706L67.5501 104.306L72.067 112.142L76.5914 119.977L76.5839 120H76.6065H85.6328H85.6479Z" fill="#1D2A38"/>
<path d="M99.2137 112.142L94.6893 104.306L90.1648 96.4706L85.6404 88.635L81.1159 80.7994L76.5915 72.9638L72.067 65.1282L63.3348 50H54.2859L67.5425 72.9638L76.5915 88.635L81.1159 96.4706L85.6404 104.306L90.1648 112.142L94.6893 119.977L94.6742 120H94.6968H103.731H103.746L103.738 119.985L99.2137 112.142Z" fill="#1D2A38"/>
<path d="M118.714 0H109.665L76.6367 57.2097L81.1687 65.0453L118.714 0Z" fill="#FF6600"/>
<path d="M58.5087 120H67.535H67.5576L67.5501 119.977L63.0181 112.142L58.5012 104.306L53.9767 96.4706L27.1467 50H18.0978L49.4523 104.306L53.9767 112.142L58.5012 119.977L58.4861 120H58.5087Z" fill="#1D2A38"/>
<path d="M90.21 80.7164L136.812 0H127.763L85.6856 72.8809L85.7384 72.9638L90.21 80.7164Z" fill="#FF6600"/>
<path d="M99.259 96.3952L154.902 0H145.861L94.7345 88.552L94.7798 88.635L99.259 96.3952Z" fill="#FF6600"/>
<path d="M173 0H163.951L103.783 104.223L103.829 104.306L108.308 112.066L173 0Z" fill="#FF6600"/>
</g>
<defs>
<clipPath id="clip0_89_1698">
<rect width="173" height="120" fill="white"/>
</clipPath>
</defs>
</svg>
